<?xml version="1.0" standalone="no"?>
<!DOCTYPE svg PUBLIC "-//W3C//DTD SVG 20010904//EN"
 "http://www.w3.org/TR/2001/REC-SVG-20010904/DTD/svg10.dtd">
<svg version="1.0" xmlns="http://www.w3.org/2000/svg"
 width="700.000000pt" height="700.000000pt" viewBox="0 0 700.000000 700.000000"
 preserveAspectRatio="xMidYMid meet">
<metadata>
Created by potrace 1.11, written by Peter Selinger 2001-2013
</metadata>
<g transform="translate(0.000000,700.000000) scale(0.100000,-0.100000)"
fill="#000000" stroke="none">
<path d="M3368 6785 c-2 -1 -53 -5 -114 -9 -61 -4 -121 -8 -135 -11 -13 -2
-46 -6 -74 -10 -72 -9 -119 -16 -125 -20 -3 -2 -26 -6 -50 -10 -25 -3 -72 -13
-105 -22 -33 -8 -67 -16 -75 -18 -40 -8 -141 -36 -181 -51 -24 -8 -52 -17 -62
-19 -49 -11 -318 -126 -442 -189 -182 -94 -317 -178 -478 -300 -73 -54 -134
-102 -137 -105 -3 -3 -25 -23 -50 -45 -25 -21 -85 -77 -134 -125 -542 -528
-883 -1221 -972 -1976 -23 -201 -23 -633 1 -755 3 -14 8 -52 11 -85 4 -33 8
-63 10 -66 2 -4 6 -27 9 -50 9 -67 51 -242 85 -354 17 -55 32 -107 34 -116 13
-50 98 -254 161 -384 245 -502 599 -919 1065 -1252 199 -143 495 -300 720
-383 63 -23 124 -45 135 -50 55 -22 308 -89 400 -105 17 -2 39 -7 50 -9 11 -2
40 -7 65 -11 25 -3 59 -9 75 -12 30 -5 48 -6 185 -19 227 -22 633 -1 845 42
11 3 36 7 55 10 59 9 294 72 402 108 345 114 697 304 978 525 25 20 47 38 50
41 3 3 28 23 55 45 50 39 304 289 361 356 236 272 449 626 578 962 55 143 124
366 142 462 2 11 10 52 18 90 21 98 38 218 51 360 10 105 13 422 4 505 -4 36
-10 97 -13 135 -4 39 -9 77 -11 85 -2 8 -6 38 -10 65 -32 263 -163 672 -302
950 -76 151 -247 429 -309 502 -11 12 -30 37 -44 55 -120 157 -364 404 -530
538 -325 261 -712 466 -1104 584 -137 42 -391 99 -493 111 -24 3 -62 7 -85 10
-108 13 -500 28 -510 20z m1315 -1279 c52 -23 600 -570 623 -623 24 -55 22
-157 -3 -214 -43 -97 -127 -145 -236 -137 -65 6 -99 21 -149 67 -16 13 -28 23
-29 20 0 -2 -2 -605 -3 -1339 -3 -1207 -5 -1341 -19 -1393 -21 -73 -39 -107
-79 -152 -98 -113 -328 -134 -484 -44 -94 53 -190 172 -396 489 -45 69 -106
163 -137 210 -31 47 -58 89 -60 95 -2 5 -8 14 -13 20 -5 5 -45 66 -90 135 -45
69 -106 163 -137 210 -31 46 -58 89 -61 95 -3 5 -35 55 -71 110 -36 55 -117
179 -180 275 -63 96 -160 243 -214 327 -55 84 -109 167 -120 186 -11 18 -29
46 -41 62 l-21 28 0 -707 c0 -388 -2 -708 -5 -711 -3 -3 -28 6 -55 19 -119 60
-271 74 -405 37 -42 -11 -92 -30 -110 -41 -18 -11 -36 -20 -41 -20 -11 0 -7
2112 4 2190 21 148 117 260 264 309 67 22 159 23 232 2 92 -26 177 -107 278
-268 50 -79 466 -712 505 -768 11 -16 89 -133 172 -260 339 -515 660 -1000
666 -1007 4 -4 7 425 7 952 0 528 -1 960 -3 960 -2 0 -20 -13 -40 -29 -56 -45
-142 -70 -200 -60 -171 32 -260 250 -158 386 41 56 538 551 577 575 63 40 158
45 232 14z m-2089 -3058 c65 -21 146 -71 188 -115 122 -128 159 -342 86 -501
-77 -169 -254 -278 -437 -268 -126 7 -208 43 -297 131 -70 69 -110 141 -129
229 -52 251 111 493 364 540 81 15 147 10 225 -16z"/>
</g>
</svg>
