<svg width="100" height="100" viewBox="0 0 245 245" xmlns="http://www.w3.org/2000/svg" style="clip-rule:evenodd;fill-rule:evenodd;stroke-linejoin:round;stroke-miterlimit:2;version:1"><path d="M122.1 0c67.4 0 122.1 54.7 122.1 122.1 0 67.4-54.7 122.1-122.1 122.1 -67.4 0-122.1-54.7-122.1-122.1 0-67.4 54.7-122.1 122.1-122.1Zm-39 160.2c9.4 0 17 7.6 17 17 0 9.4-7.6 17-17 17 -9.4 0-17-7.6-17-17 0-9.4 7.6-17 17-17Zm67.8-80.1l-1.2 1.2c0 0-3.7 3-7.4 2.6 -6.6-0.7-10.9-9.9-5.8-15.3 0.1-0.1 0.2-0.2 0.3-0.3l18.9-18.9c1.6-1.5 3.7-2.5 5.9-2.7 0.7 0 0.9 0 1.1 0 1.1 0.1 1.3 0.2 1.8 0.3 1.1 0.3 2.1 0.8 3 1.4 0.4 0.3 0.8 0.6 1.1 1l18.9 18.9c4.2 4.4 2.7 12.7-3.1 15 -3.3 1.3-7.3 0.5-9.9-2l-1-1 0 95c0 10.7-4.4 16-13.3 16 -2.2 0-4.2-0.3-6-1 -1.8-0.6-3.4-1.6-5-3 -1.6-1.4-3-3-4.3-4.9 -1.3-1.9-2.7-3.8-4-5.7l-46.3-71 0 53.3c-3.3-2.1-7.3-3.4-11.6-3.4 -4.3 0-8.2 1.2-11.6 3.4l0-75.9c0-4 0.4-7.1 1.3-9.4 1.1-2.5 2.8-4.5 5.2-6.1 2.4-1.6 5.1-2.4 7.9-2.4 2.2 0 4.1 0.4 5.7 1.1 1.6 0.7 3 1.7 4.2 2.9 1.2 1.2 2.4 2.8 3.7 4.7 1.2 1.9 2.5 4 3.9 6.1l47.5 71.8 0-71.8Z" fill="#ff8f00"/></svg>